{"asset":{"version":"2.0","generator":"Blockbench 4.10.3 glTF exporter"},"scenes":[{"nodes":[12],"name":"blockbench_export"}],"scene":0,"nodes":[{"translation":[0,-1,0],"name":"cube","mesh":0},{"translation":[0,0.1875,1.75],"name":"leaf1"},{"rotation":[-0.19959820847266868,0.054434271919608396,0.07374125675914378,0.9755817199326078],"translation":[0.9375,4.25,-3.75],"name":"leaf3"},{"rotation":[-0.04336012847988682,-0.004748706385421381,-0.1087632577100299,0.9931102168531821],"translation":[3.0625,1.25,1.875],"name":"leaf4"},{"rotation":[0.10886687485196457,0,0,0.9940563382223196],"translation":[-1.5625,-3.375,-2.0625],"name":"leaf5"},{"rotation":[-0.0434534024273578,0.0038016801040236716,0.0870727897926938,0.9952465414778341],"translation":[-0.5625,1,-3.75],"name":"leaf7"},{"rotation":[-0.043619387365335986,2.1555088019910914e-17,-9.411154674252826e-19,0.9990482215818578],"translation":[3.0625,1.25,0.4375],"name":"leaf8"},{"translation":[1.125,-1.3125,3.1875],"name":"leaf6"},{"rotation":[0,0.7223639620597555,0,0.6915130557822694],"translation":[0,4.125,0],"name":"leaves2","children":[4,5,6,7]},{"rotation":[0.10886687485196457,0,0,0.9940563382223196],"translation":[1.4375,0.5625,-2],"name":"leaf2"},{"rotation":[0,0.08715574274765817,0,0.9961946980917455],"translation":[-0.625,10.3125,0.5],"name":"leaves","children":[1,2,3,8,9]},{"translation":[0,1,0],"name":"bone","children":[0,10]},{"children":[11]}],"bufferViews":[{"buffer":0,"byteOffset":0,"byteLength":4896,"target":34962,"byteStride":12},{"buffer":0,"byteOffset":4896,"byteLength":4896,"target":34962,"byteStride":12},{"buffer":0,"byteOffset":9792,"byteLength":3264,"target":34962,"byteStride":8},{"buffer":0,"byteOffset":13056,"byteLength":1224,"target":34963}],"buffers":[{"byteLength":14280,"uri":"data:application/octet-stream;base64,"}],"accessors":[{"bufferView":0,"componentType":5126,"count":408,"max":[8.74052906036377,21.79762077331543,8.870328903198242],"min":[-9.044302940368652,-1,-8.202313423156738],"type":"VEC3"},{"bufferView":1,"componentType":5126,"count":408,"max":[0.999641478061676,1,0.9999082088470459],"min":[-0.9998649954795837,-1,-0.999641478061676],"type":"VEC3"},{"bufferView":2,"componentType":5126,"count":408,"max":[1,0.875],"min":[0,0],"type":"VEC2"},{"bufferView":3,"componentType":5123,"count":612,"max":[407],"min":[0],"type":"SCALAR"}],"materials":[{"pbrMetallicRoughness":{"metallicFactor":0,"roughnessFactor":1,"baseColorTexture":{"index":0}},"alphaMode":"MASK","alphaCutoff":0.05,"doubleSided":true}],"textures":[{"sampler":0,"source":0,"name":"SummerTree1.png"}],"samplers":[{"magFilter":9728,"minFilter":9728,"wrapS":33071,"wrapT":33071}],"images":[{"mimeType":"image/png"}],"meshes":[{"primitives":[{"mode":4,"attributes":{"POSITION":0,"NORMAL":1,"TEXCOORD_0":2},"indices":3,"material":0}]}]}